<svg width="77" height="77" viewBox="0 0 77 77" fill="none" xmlns="http://www.w3.org/2000/svg">
<g clip-path="url(#clip0_323_2)">
<path d="M22.3636 38.4051C22.3192 39.055 22.3425 39.7155 22.218 40.3486C21.874 42.1063 20.5615 43.3429 18.7699 43.4484C17.2063 43.5412 15.63 43.4505 14.06 43.4146C12.7222 43.383 11.3844 43.2965 10.0465 43.269C9.14124 43.25 8.51663 43.7143 8.25919 44.5752C8.00386 45.4235 7.75908 46.2823 7.62403 47.1538C7.33705 49.0192 6.22499 50.049 4.44401 50.3866C3.3826 50.5871 2.30008 50.6989 1.21968 50.7791C0.52121 50.8319 0.0654141 50.4077 0.00632942 49.8042C-0.0569756 49.1501 0.299643 48.6964 1.02343 48.5613C1.85906 48.4052 2.6989 48.2786 3.53453 48.1393C4.54952 47.9705 5.1256 47.3628 5.34083 46.3668C5.53075 45.4826 5.7291 44.5984 5.96122 43.7248C6.63859 41.1715 8.09671 40.7284 10.1837 40.8255C12.4605 40.9331 14.7374 41.0934 17.0143 41.1715C17.5967 41.1926 18.1981 41.0301 18.772 40.8803C19.4684 40.6988 19.9115 40.2008 19.9601 39.4834C20.0128 38.7132 19.9959 37.9303 19.9348 37.1601C19.8862 36.5313 19.4979 36.0691 18.8902 35.8961C18.3036 35.7273 17.6874 35.5479 17.0881 35.5606C15.3156 35.5944 13.5473 35.7294 11.7747 35.8075C10.8547 35.8497 9.93045 35.9045 9.01041 35.8729C7.57972 35.8201 6.54785 34.9423 6.07728 33.385C5.81562 32.5198 5.6046 31.6357 5.45056 30.7452C5.22055 29.4073 4.49255 28.6456 3.12938 28.4957C2.4288 28.4177 1.73034 28.3143 1.0382 28.1919C0.320744 28.0653 -0.0506451 27.5989 0.00421925 26.9617C0.0569734 26.3265 0.5191 25.8834 1.24078 25.953C2.46045 26.0712 3.68435 26.2189 4.88082 26.4721C6.64914 26.8456 7.38769 28.1433 7.67468 29.8146C7.80973 30.5975 8.01653 31.3698 8.24653 32.1316C8.51241 33.0136 9.14335 33.4968 10.0718 33.4631C11.8971 33.3956 13.7224 33.29 15.5456 33.1888C16.8687 33.117 18.1854 33.0579 19.4811 33.4293C21.1439 33.9041 22.1757 35.1512 22.3002 36.8858C22.3361 37.3901 22.3066 37.8987 22.3066 38.4072C22.3256 38.4072 22.3446 38.4072 22.3636 38.4093V38.4051Z" fill="white"/>
<path d="M27.0228 49.8441C27.4512 50.3337 27.9344 50.7853 28.2952 51.3213C29.2933 52.8089 29.2406 54.611 28.0504 55.951C27.0101 57.1221 25.8327 58.173 24.6953 59.2576C23.7267 60.1818 22.7202 61.066 21.7537 61.9924C21.0996 62.6191 20.9877 63.3893 21.4119 64.1806C21.8318 64.9593 22.2644 65.7421 22.7856 66.4533C23.9019 67.9768 23.8428 69.4898 22.8236 70.988C22.2158 71.8806 21.5279 72.7247 20.821 73.5455C20.3631 74.0773 19.7427 74.0984 19.2743 73.7122C18.7678 73.2965 18.6982 72.7205 19.116 72.1127C19.5971 71.4121 20.0993 70.7285 20.5931 70.0384C21.1903 69.2007 21.1692 68.363 20.6184 67.5083C20.1289 66.7487 19.6414 65.9848 19.1877 65.2019C17.8604 62.9166 18.5779 61.5724 20.1225 60.1671C21.8086 58.633 23.5305 57.1369 25.1975 55.5817C25.6238 55.1829 25.9339 54.6448 26.2336 54.132C26.5965 53.5116 26.5586 52.8469 26.0859 52.3046C25.5773 51.7222 25.0139 51.182 24.4252 50.6798C23.9462 50.2704 23.3448 50.2176 22.7919 50.5236C22.258 50.819 21.6946 51.1271 21.2789 51.5597C20.0508 52.8363 18.8923 54.1826 17.698 55.4909C17.0755 56.1704 16.4635 56.8647 15.7883 57.4914C14.7395 58.4663 13.3911 58.5739 11.9541 57.8058C11.1586 57.3795 10.382 56.9026 9.64346 56.3835C8.53351 55.6007 7.48265 55.5775 6.41068 56.4342C5.85993 56.8731 5.2944 57.2951 4.71622 57.6982C4.11904 58.116 3.52819 58.0485 3.1146 57.5589C2.70312 57.0715 2.71578 56.4321 3.27497 55.9699C4.22033 55.1913 5.19101 54.4316 6.21655 53.7627C7.73165 52.7752 9.17078 53.1719 10.5551 54.1489C11.2029 54.6068 11.8971 55.0077 12.5977 55.3833C13.4101 55.8201 14.1972 55.7146 14.8302 55.0351C16.0731 53.6973 17.2886 52.332 18.5083 50.971C19.3924 49.9855 20.2829 49.0106 21.4604 48.3565C22.9734 47.5166 24.5856 47.6686 25.8981 48.808C26.28 49.1393 26.6198 49.5213 26.9785 49.88C26.9933 49.8673 27.0059 49.8547 27.0207 49.842L27.0228 49.8441Z" fill="white"/>
<path d="M38.4051 54.6362C39.055 54.6805 39.7155 54.6573 40.3486 54.7818C42.1063 55.1258 43.3429 56.4383 43.4484 58.2298C43.5412 59.7935 43.4505 61.3698 43.4146 62.9397C43.383 64.2776 43.2965 65.6154 43.269 66.9533C43.25 67.8585 43.7143 68.4831 44.5752 68.7406C45.4235 68.9959 46.2823 69.2407 47.1538 69.3757C49.0192 69.6627 50.049 70.7748 50.3866 72.5558C50.5871 73.6172 50.6989 74.6997 50.7791 75.7801C50.8319 76.4786 50.4077 76.9344 49.8042 76.9934C49.1501 77.0568 48.6964 76.7001 48.5613 75.9763C48.4052 75.1407 48.2786 74.3009 48.1393 73.4652C47.9705 72.4503 47.3628 71.8742 46.3668 71.6589C45.4826 71.469 44.5984 71.2707 43.7248 71.0386C41.1715 70.3612 40.7284 68.9031 40.8255 66.8161C40.9331 64.5392 41.0934 62.2624 41.1715 59.9855C41.1926 59.4031 41.0301 58.8017 40.8803 58.2277C40.6988 57.5314 40.2008 57.0882 39.4834 57.0397C38.7132 56.987 37.9303 57.0038 37.1601 57.065C36.5313 57.1136 36.0691 57.5018 35.8961 58.1096C35.7273 58.6962 35.5479 59.3124 35.5606 59.9116C35.5944 61.6842 35.7294 63.4525 35.8075 65.225C35.8497 66.1451 35.9045 67.0693 35.8729 67.9894C35.8201 69.4201 34.9423 70.4519 33.385 70.9225C32.5198 71.1842 31.6357 71.3952 30.7452 71.5492C29.4073 71.7792 28.6456 72.5072 28.4957 73.8704C28.4177 74.571 28.3143 75.2694 28.1919 75.9616C28.0653 76.679 27.5989 77.0504 26.9617 76.9956C26.3265 76.9428 25.8834 76.4807 25.953 75.759C26.0712 74.5393 26.2189 73.3154 26.4721 72.119C26.8456 70.3506 28.1433 69.6121 29.8146 69.3251C30.5975 69.1901 31.3698 68.9833 32.1316 68.7532C33.0136 68.4874 33.4968 67.8564 33.4631 66.928C33.3956 65.1027 33.29 63.2774 33.1888 61.4542C33.117 60.1311 33.0579 58.8144 33.4293 57.5187C33.9041 55.8559 35.1512 54.824 36.8858 54.6995C37.3901 54.6637 37.8987 54.6932 38.4072 54.6932C38.4072 54.6742 38.4072 54.6552 38.4093 54.6362H38.4051Z" fill="white"/>
<path d="M49.8443 49.9774C50.3338 49.549 50.7854 49.0658 51.3214 48.7049C52.809 47.7068 54.6111 47.7596 55.9511 48.9497C57.1222 49.99 58.1731 51.1675 59.2577 52.3049C60.182 53.2734 61.0661 54.28 61.9925 55.2464C62.6192 55.9006 63.3894 56.0124 64.1807 55.5883C64.9594 55.1684 65.7423 54.7358 66.4534 54.2146C67.9769 53.0983 69.4899 53.1574 70.9881 54.1766C71.8807 54.7843 72.7248 55.4722 73.5457 56.1791C74.0774 56.637 74.0985 57.2574 73.7124 57.7259C73.2967 58.2323 72.7206 58.302 72.1128 57.8842C71.4123 57.403 70.7286 56.9008 70.0386 56.407C69.2008 55.8099 68.3631 55.831 67.5085 56.3817C66.7488 56.8713 65.9849 57.3587 65.2021 57.8124C62.9167 59.1397 61.5726 58.4222 60.1672 56.8776C58.6331 55.1916 57.137 53.4697 55.5818 51.8027C55.183 51.3764 54.6449 51.0662 54.1321 50.7666C53.5117 50.4036 52.847 50.4416 52.3047 50.9143C51.7223 51.4228 51.1821 51.9862 50.6799 52.575C50.2705 53.054 50.2178 53.6554 50.5237 54.2082C50.8192 54.7421 51.1272 55.3055 51.5598 55.7212C52.8365 56.9494 54.1828 58.1078 55.4911 59.3022C56.1705 59.9247 56.8648 60.5366 57.4915 61.2119C58.4664 62.2606 58.574 63.609 57.8059 65.0461C57.3797 65.8416 56.9028 66.6181 56.3837 67.3567C55.6008 68.4666 55.5776 69.5175 56.4343 70.5895C56.8732 71.1402 57.2953 71.7057 57.6983 72.2839C58.1161 72.8811 58.0486 73.472 57.559 73.8856C57.0716 74.297 56.4322 74.2844 55.9701 73.7252C55.1914 72.7798 54.4318 71.8091 53.7628 70.7836C52.7753 69.2685 53.172 67.8294 54.149 66.4451C54.6069 65.7973 55.0078 65.103 55.3834 64.4025C55.8202 63.59 55.7147 62.803 55.0353 62.1699C53.6974 60.927 52.3321 59.7116 50.9711 58.4919C49.9856 57.6077 49.0107 56.7172 48.3566 55.5398C47.5167 54.0268 47.6687 52.4146 48.8082 51.1021C49.1395 50.7201 49.5214 50.3804 49.8801 50.0217C49.8675 50.0069 49.8548 49.9942 49.8421 49.9795L49.8443 49.9774Z" fill="white"/>
<path d="M54.6365 38.5948C54.6808 37.9448 54.6576 37.2843 54.7821 36.6513C55.126 34.8935 56.4386 33.657 58.2301 33.5515C59.7937 33.4586 61.37 33.5493 62.94 33.5852C64.2778 33.6169 65.6157 33.7034 66.9535 33.7308C67.8588 33.7498 68.4834 33.2856 68.7408 32.4246C68.9962 31.5763 69.2409 30.7175 69.376 29.846C69.663 27.9806 70.775 26.9509 72.556 26.6132C73.6174 26.4128 74.6999 26.3009 75.7803 26.2207C76.4788 26.168 76.9346 26.5921 76.9937 27.1956C77.057 27.8498 76.7004 28.3035 75.9766 28.4385C75.141 28.5947 74.3011 28.7213 73.4655 28.8606C72.4505 29.0294 71.8744 29.6371 71.6592 30.6331C71.4693 31.5173 71.2709 32.4014 71.0388 33.275C70.3614 35.8283 68.9033 36.2715 66.8164 36.1744C64.5395 36.0668 62.2626 35.9064 59.9857 35.8283C59.4033 35.8072 58.8019 35.9697 58.228 36.1195C57.5316 36.301 57.0885 36.799 57.04 37.5165C56.9872 38.2867 57.0041 39.0695 57.0653 39.8398C57.1138 40.4686 57.5021 40.9307 58.1098 41.1037C58.6964 41.2726 59.3126 41.4519 59.9119 41.4393C61.6844 41.4055 63.4528 41.2705 65.2253 41.1924C66.1453 41.1502 67.0696 41.0953 67.9896 41.127C69.4203 41.1797 70.4522 42.0575 70.9227 43.6148C71.1844 44.48 71.3954 45.3642 71.5495 46.2547C71.7795 47.5925 72.5075 48.3543 73.8706 48.5041C74.5712 48.5822 75.2697 48.6856 75.9618 48.808C76.6793 48.9346 77.0507 49.4009 76.9958 50.0382C76.9431 50.6734 76.4809 51.1165 75.7592 51.0469C74.5396 50.9287 73.3157 50.781 72.1192 50.5278C70.3509 50.1543 69.6123 48.8565 69.3253 47.1852C69.1903 46.4024 68.9835 45.6301 68.7535 44.8683C68.4876 43.9862 67.8567 43.503 66.9282 43.5368C65.1029 43.6043 63.2776 43.7098 61.4544 43.8111C60.1313 43.8828 58.8146 43.9419 57.519 43.5705C55.8561 43.0957 54.8243 41.8486 54.6998 40.1141C54.6639 39.6097 54.6934 39.1012 54.6934 38.5926C54.6745 38.5926 54.6555 38.5926 54.6365 38.5905V38.5948Z" fill="white"/>
<path d="M49.9772 27.158C49.5489 26.6684 49.0656 26.2168 48.7048 25.6809C47.7067 24.1932 47.7595 22.3911 48.9496 21.0512C49.9899 19.88 51.1674 18.8291 52.3047 17.7445C53.2733 16.8203 54.2799 15.9361 55.2463 15.0097C55.9005 14.383 56.0123 13.6128 55.5882 12.8215C55.1682 12.0428 54.7357 11.26 54.2145 10.5489C53.0982 9.02531 53.1573 7.51232 54.1765 6.0141C54.7842 5.1215 55.4721 4.27743 56.179 3.45658C56.6369 2.92482 57.2573 2.90372 57.7258 3.28988C58.2322 3.70558 58.3018 4.28165 57.884 4.88938C57.4029 5.58996 56.9007 6.27365 56.4069 6.96368C55.8097 7.80141 55.8308 8.63915 56.3816 9.49377C56.8712 10.2534 57.3586 11.0173 57.8123 11.8002C59.1396 14.0855 58.4221 15.4297 56.8775 16.835C55.1915 18.3691 53.4696 19.8652 51.8025 21.4204C51.3763 21.8193 51.0661 22.3573 50.7664 22.8701C50.4035 23.4905 50.4415 24.1552 50.9142 24.6975C51.4227 25.2799 51.9861 25.8201 52.5749 26.3224C53.0539 26.7317 53.6553 26.7845 54.2081 26.4785C54.742 26.1831 55.3054 25.875 55.7211 25.4424C56.9492 24.1658 58.1077 22.8195 59.3021 21.5112C59.9246 20.8317 60.5365 20.1375 61.2118 19.5107C62.2605 18.5358 63.6089 18.4282 65.0459 19.1963C65.8415 19.6226 66.618 20.0995 67.3566 20.6186C68.4665 21.4014 69.5174 21.4247 70.5893 20.5679C71.1401 20.129 71.7056 19.707 72.2838 19.3039C72.881 18.8861 73.4718 18.9536 73.8854 19.4432C74.2969 19.9307 74.2843 20.57 73.7251 21.0322C72.7797 21.8108 71.809 22.5705 70.7835 23.2394C69.2684 24.227 67.8293 23.8302 66.445 22.8532C65.7972 22.3953 65.1029 21.9944 64.4023 21.6188C63.5899 21.182 62.8028 21.2875 62.1698 21.967C60.9269 23.3048 59.7114 24.6701 58.4918 26.0311C57.6076 27.0166 56.7171 27.9915 55.5396 28.6456C54.0266 29.4855 52.4145 29.3336 51.102 28.1941C50.72 27.8628 50.3803 27.4808 50.0216 27.1221C50.0068 27.1348 49.9941 27.1474 49.9793 27.1601L49.9772 27.158Z" fill="white"/>
<path d="M38.595 22.3637C37.9451 22.3194 37.2846 22.3426 36.6515 22.2181C34.8938 21.8741 33.6572 20.5616 33.5517 18.7701C33.4589 17.2064 33.5496 15.6301 33.5855 14.0602C33.6171 12.7223 33.7036 11.3845 33.7311 10.0466C33.7501 9.14137 33.2858 8.51676 32.4249 8.25932C31.5766 8.00399 30.7177 7.75921 29.8462 7.62416C27.9809 7.33717 26.9511 6.22511 26.6135 4.44413C26.413 3.38272 26.3012 2.3002 26.221 1.2198C26.1682 0.521332 26.5924 0.0655362 27.1959 0.00645149C27.85 -0.0568535 28.3037 0.299765 28.4388 1.02355C28.5949 1.85918 28.7215 2.69903 28.8608 3.53465C29.0296 4.54964 29.6373 5.12572 30.6333 5.34095C31.5175 5.53087 32.4017 5.72923 33.2753 5.96134C35.8286 6.63871 36.2717 8.09683 36.1746 10.1838C36.067 12.4607 35.9066 14.7375 35.8286 17.0144C35.8075 17.5968 35.97 18.1982 36.1198 18.7722C36.3012 19.4685 36.7992 19.9117 37.5167 19.9602C38.2869 20.0129 39.0698 19.9961 39.84 19.9349C40.4688 19.8863 40.931 19.4981 41.104 18.8903C41.2728 18.3037 41.4522 17.6875 41.4395 17.0883C41.4057 15.3157 41.2707 13.5474 41.1926 11.7749C41.1504 10.8548 41.0955 9.93057 41.1272 9.01054C41.18 7.57984 42.0578 6.54797 43.6151 6.0774C44.4803 5.81574 45.3644 5.60473 46.2549 5.45068C47.5928 5.22068 48.3545 4.49267 48.5043 3.1295C48.5824 2.42892 48.6858 1.73046 48.8082 1.03832C48.9348 0.320866 49.4012 -0.050523 50.0384 0.00434132C50.6736 0.0570955 51.1167 0.519222 51.0471 1.2409C50.9289 2.46058 50.7812 3.68447 50.528 4.88094C50.1545 6.64926 48.8567 7.38782 47.1855 7.6748C46.4026 7.80985 45.6303 8.01665 44.8685 8.24666C43.9865 8.51254 43.5033 9.14348 43.537 10.0719C43.6045 11.8972 43.71 13.7225 43.8113 15.5457C43.8831 16.8688 43.9422 18.1855 43.5708 19.4812C43.096 21.144 41.8489 22.1759 40.1143 22.3004C39.61 22.3362 39.1014 22.3067 38.5929 22.3067C38.5929 22.3257 38.5929 22.3447 38.5908 22.3637H38.595Z" fill="white"/>
<path d="M27.1579 27.023C26.6683 27.4514 26.2167 27.9346 25.6807 28.2955C24.1931 29.2936 22.391 29.2408 21.051 28.0507C19.8799 27.0104 18.829 25.8329 17.7444 24.6955C16.8201 23.727 15.936 22.7204 15.0096 21.754C14.3829 21.0998 13.6127 20.988 12.8214 21.4121C12.0427 21.832 11.2599 22.2646 10.5487 22.7858C9.02519 23.9021 7.5122 23.843 6.01398 22.8238C5.12138 22.2161 4.27731 21.5282 3.45646 20.8213C2.9247 20.3634 2.90359 19.743 3.28975 19.2745C3.70546 18.7681 4.28153 18.6984 4.88926 19.1162C5.58984 19.5974 6.27353 20.0996 6.96356 20.5934C7.80129 21.1905 8.63903 21.1694 9.49365 20.6187C10.2533 20.1291 11.0172 19.6417 11.8001 19.188C14.0854 17.8607 15.4295 18.5782 16.8349 20.1228C18.369 21.8088 19.8651 23.5307 21.4203 25.1977C21.8191 25.624 22.3572 25.9342 22.87 26.2338C23.4904 26.5968 24.1551 26.5588 24.6974 26.0861C25.2798 25.5776 25.82 25.0142 26.3222 24.4254C26.7316 23.9464 26.7844 23.345 26.4784 22.7922C26.183 22.2583 25.8749 21.6949 25.4423 21.2792C24.1656 20.051 22.8194 18.8926 21.511 17.6982C20.8316 17.0757 20.1373 16.4638 19.5106 15.7885C18.5357 14.7398 18.4281 13.3914 19.1962 11.9543C19.6224 11.1588 20.0993 10.3823 20.6184 9.6437C21.4013 8.53375 21.4245 7.48289 20.5678 6.41093C20.1289 5.86017 19.7069 5.29465 19.3038 4.71646C18.886 4.11928 18.9535 3.52844 19.4431 3.11485C19.9305 2.70336 20.5699 2.71602 21.032 3.27522C21.8107 4.22057 22.5704 5.19125 23.2393 6.21679C24.2268 7.73189 23.8301 9.17103 22.8531 10.5553C22.3952 11.2031 21.9943 11.8974 21.6187 12.5979C21.1819 13.4104 21.2874 14.1974 21.9668 14.8305C23.3047 16.0734 24.67 17.2888 26.031 18.5085C27.0165 19.3927 27.9914 20.2832 28.6455 21.4606C29.4854 22.9736 29.3334 24.5858 28.1939 25.8983C27.8627 26.2803 27.4807 26.62 27.122 26.9787C27.1346 26.9935 27.1473 27.0062 27.16 27.0209L27.1579 27.023Z" fill="white"/>
</g>
<defs>
<clipPath id="clip0_323_2">
<rect width="77" height="77" fill="white"/>
</clipPath>
</defs>
</svg>
