<svg width="77" height="77" viewBox="0 0 77 77" fill="none" xmlns="http://www.w3.org/2000/svg">
<g clip-path="url(#clip0_273_14)">
<path d="M22.3637 38.4051C22.3194 39.055 22.3426 39.7155 22.2181 40.3486C21.8741 42.1063 20.5616 43.3429 18.7701 43.4484C17.2064 43.5412 15.6301 43.4505 14.0602 43.4146C12.7223 43.383 11.3845 43.2965 10.0466 43.269C9.14137 43.25 8.51676 43.7143 8.25932 44.5752C8.00399 45.4235 7.75921 46.2823 7.62416 47.1538C7.33717 49.0192 6.22511 50.049 4.44413 50.3866C3.38272 50.5871 2.3002 50.6989 1.2198 50.7791C0.521332 50.8319 0.0655362 50.4077 0.00645149 49.8042C-0.0568535 49.1501 0.299765 48.6964 1.02355 48.5613C1.85918 48.4052 2.69903 48.2786 3.53465 48.1393C4.54964 47.9705 5.12572 47.3628 5.34095 46.3668C5.53087 45.4826 5.72923 44.5984 5.96134 43.7248C6.63871 41.1715 8.09683 40.7284 10.1838 40.8255C12.4607 40.9331 14.7375 41.0934 17.0144 41.1715C17.5968 41.1926 18.1982 41.0301 18.7722 40.8803C19.4685 40.6988 19.9117 40.2008 19.9602 39.4834C20.0129 38.7132 19.9961 37.9303 19.9349 37.1601C19.8863 36.5313 19.4981 36.0691 18.8903 35.8961C18.3037 35.7273 17.6875 35.5479 17.0883 35.5606C15.3157 35.5944 13.5474 35.7294 11.7749 35.8075C10.8548 35.8497 9.93057 35.9045 9.01054 35.8729C7.57984 35.8201 6.54797 34.9423 6.0774 33.385C5.81574 32.5198 5.60473 31.6357 5.45068 30.7452C5.22068 29.4073 4.49267 28.6456 3.1295 28.4957C2.42892 28.4177 1.73046 28.3143 1.03832 28.1919C0.320866 28.0653 -0.050523 27.5989 0.00434132 26.9617C0.0570955 26.3265 0.519222 25.8834 1.2409 25.953C2.46058 26.0712 3.68447 26.2189 4.88094 26.4721C6.64926 26.8456 7.38782 28.1433 7.6748 29.8146C7.80985 30.5975 8.01665 31.3698 8.24666 32.1316C8.51254 33.0136 9.14348 33.4968 10.0719 33.4631C11.8972 33.3956 13.7225 33.29 15.5457 33.1888C16.8688 33.117 18.1855 33.0579 19.4812 33.4293C21.144 33.9041 22.1759 35.1512 22.3004 36.8858C22.3362 37.3901 22.3067 37.8987 22.3067 38.4072C22.3257 38.4072 22.3447 38.4072 22.3637 38.4093V38.4051Z" fill="black"/>
<path d="M27.0228 49.8441C27.4512 50.3337 27.9344 50.7853 28.2952 51.3213C29.2933 52.8089 29.2406 54.611 28.0504 55.951C27.0101 57.1221 25.8327 58.173 24.6953 59.2576C23.7267 60.1818 22.7202 61.066 21.7537 61.9924C21.0996 62.6191 20.9877 63.3893 21.4119 64.1806C21.8318 64.9593 22.2644 65.7421 22.7856 66.4533C23.9019 67.9768 23.8428 69.4898 22.8236 70.988C22.2158 71.8806 21.5279 72.7247 20.821 73.5455C20.3631 74.0773 19.7427 74.0984 19.2743 73.7122C18.7678 73.2965 18.6982 72.7205 19.116 72.1127C19.5971 71.4121 20.0993 70.7285 20.5931 70.0384C21.1903 69.2007 21.1692 68.363 20.6184 67.5083C20.1289 66.7487 19.6414 65.9848 19.1877 65.2019C17.8604 62.9166 18.5779 61.5724 20.1225 60.1671C21.8086 58.633 23.5305 57.1369 25.1975 55.5817C25.6238 55.1829 25.9339 54.6448 26.2336 54.132C26.5965 53.5116 26.5586 52.8469 26.0859 52.3046C25.5773 51.7222 25.0139 51.182 24.4252 50.6798C23.9462 50.2704 23.3448 50.2176 22.7919 50.5236C22.258 50.819 21.6946 51.1271 21.2789 51.5597C20.0508 52.8363 18.8923 54.1826 17.698 55.4909C17.0755 56.1704 16.4635 56.8647 15.7883 57.4914C14.7395 58.4663 13.3911 58.5739 11.9541 57.8058C11.1586 57.3795 10.382 56.9026 9.64346 56.3835C8.53351 55.6007 7.48265 55.5775 6.41068 56.4342C5.85993 56.8731 5.2944 57.2951 4.71622 57.6982C4.11904 58.116 3.52819 58.0485 3.1146 57.5589C2.70312 57.0715 2.71578 56.4321 3.27497 55.9699C4.22033 55.1913 5.19101 54.4316 6.21655 53.7627C7.73165 52.7752 9.17078 53.1719 10.5551 54.1489C11.2029 54.6068 11.8971 55.0077 12.5977 55.3833C13.4101 55.8201 14.1972 55.7146 14.8302 55.0351C16.0731 53.6973 17.2886 52.332 18.5083 50.971C19.3924 49.9855 20.2829 49.0106 21.4604 48.3565C22.9734 47.5166 24.5856 47.6686 25.8981 48.808C26.28 49.1393 26.6198 49.5213 26.9785 49.88C26.9933 49.8673 27.0059 49.8547 27.0207 49.842L27.0228 49.8441Z" fill="black"/>
<path d="M38.4051 54.6362C39.055 54.6805 39.7155 54.6573 40.3486 54.7818C42.1063 55.1258 43.3429 56.4383 43.4484 58.2298C43.5412 59.7935 43.4505 61.3698 43.4146 62.9397C43.383 64.2776 43.2965 65.6154 43.269 66.9533C43.25 67.8585 43.7143 68.4831 44.5752 68.7406C45.4235 68.9959 46.2823 69.2407 47.1538 69.3757C49.0192 69.6627 50.049 70.7748 50.3866 72.5558C50.5871 73.6172 50.6989 74.6997 50.7791 75.7801C50.8319 76.4786 50.4077 76.9344 49.8042 76.9934C49.1501 77.0568 48.6964 76.7001 48.5613 75.9763C48.4052 75.1407 48.2786 74.3009 48.1393 73.4652C47.9705 72.4503 47.3628 71.8742 46.3668 71.6589C45.4826 71.469 44.5984 71.2707 43.7248 71.0386C41.1715 70.3612 40.7284 68.9031 40.8255 66.8161C40.9331 64.5392 41.0934 62.2624 41.1715 59.9855C41.1926 59.4031 41.0301 58.8017 40.8803 58.2277C40.6988 57.5314 40.2008 57.0882 39.4834 57.0397C38.7132 56.987 37.9303 57.0038 37.1601 57.065C36.5313 57.1136 36.0691 57.5018 35.8961 58.1096C35.7273 58.6962 35.5479 59.3124 35.5606 59.9116C35.5944 61.6842 35.7294 63.4525 35.8075 65.225C35.8497 66.1451 35.9045 67.0693 35.8729 67.9894C35.8201 69.4201 34.9423 70.4519 33.385 70.9225C32.5198 71.1842 31.6357 71.3952 30.7452 71.5492C29.4073 71.7792 28.6456 72.5072 28.4957 73.8704C28.4177 74.571 28.3143 75.2694 28.1919 75.9616C28.0653 76.679 27.5989 77.0504 26.9617 76.9956C26.3265 76.9428 25.8834 76.4807 25.953 75.759C26.0712 74.5393 26.2189 73.3154 26.4721 72.119C26.8456 70.3506 28.1433 69.6121 29.8146 69.3251C30.5975 69.1901 31.3698 68.9833 32.1316 68.7532C33.0136 68.4874 33.4968 67.8564 33.4631 66.928C33.3956 65.1027 33.29 63.2774 33.1888 61.4542C33.117 60.1311 33.0579 58.8144 33.4293 57.5187C33.9041 55.8559 35.1512 54.824 36.8858 54.6995C37.3901 54.6637 37.8987 54.6932 38.4072 54.6932C38.4072 54.6742 38.4072 54.6552 38.4093 54.6362H38.4051Z" fill="black"/>
<path d="M49.8444 49.9774C50.3339 49.549 50.7855 49.0658 51.3215 48.7049C52.8092 47.7068 54.6112 47.7596 55.9512 48.9497C57.1223 49.99 58.1732 51.1675 59.2578 52.3049C60.1821 53.2734 61.0662 54.28 61.9926 55.2464C62.6193 55.9006 63.3895 56.0124 64.1809 55.5883C64.9595 55.1684 65.7424 54.7358 66.4535 54.2146C67.977 53.0983 69.49 53.1574 70.9883 54.1766C71.8809 54.7843 72.7249 55.4722 73.5458 56.1791C74.0775 56.637 74.0986 57.2574 73.7125 57.7259C73.2968 58.2323 72.7207 58.302 72.113 57.8842C71.4124 57.403 70.7287 56.9008 70.0387 56.407C69.2009 55.8099 68.3632 55.831 67.5086 56.3817C66.7489 56.8713 65.985 57.3587 65.2022 57.8124C62.9169 59.1397 61.5727 58.4222 60.1673 56.8776C58.6332 55.1916 57.1371 53.4697 55.5819 51.8027C55.1831 51.3764 54.645 51.0662 54.1322 50.7666C53.5118 50.4036 52.8471 50.4416 52.3048 50.9143C51.7224 51.4228 51.1822 51.9862 50.68 52.575C50.2706 53.054 50.2179 53.6554 50.5239 54.2082C50.8193 54.7421 51.1274 55.3055 51.5599 55.7212C52.8366 56.9494 54.1829 58.1078 55.4912 59.3022C56.1707 59.9247 56.8649 60.5366 57.4916 61.2119C58.4665 62.2606 58.5741 63.609 57.806 65.0461C57.3798 65.8416 56.9029 66.6181 56.3838 67.3567C55.6009 68.4666 55.5777 69.5175 56.4344 70.5895C56.8733 71.1402 57.2954 71.7057 57.6984 72.2839C58.1162 72.8811 58.0487 73.472 57.5591 73.8856C57.0717 74.297 56.4323 74.2844 55.9702 73.7252C55.1915 72.7798 54.4319 71.8091 53.763 70.7836C52.7754 69.2685 53.1721 67.8294 54.1491 66.4451C54.607 65.7973 55.008 65.103 55.3836 64.4025C55.8204 63.59 55.7149 62.803 55.0354 62.1699C53.6975 60.927 52.3323 59.7116 50.9712 58.4919C49.9858 57.6077 49.0109 56.7172 48.3567 55.5398C47.5169 54.0268 47.6688 52.4146 48.8083 51.1021C49.1396 50.7201 49.5215 50.3804 49.8803 50.0217C49.8676 50.0069 49.8549 49.9942 49.8423 49.9795L49.8444 49.9774Z" fill="black"/>
<path d="M54.6365 38.5948C54.6808 37.9448 54.6576 37.2843 54.7821 36.6513C55.126 34.8935 56.4386 33.657 58.2301 33.5515C59.7937 33.4586 61.37 33.5493 62.94 33.5852C64.2778 33.6169 65.6157 33.7034 66.9535 33.7308C67.8588 33.7498 68.4834 33.2856 68.7408 32.4246C68.9962 31.5763 69.2409 30.7175 69.376 29.846C69.663 27.9806 70.775 26.9509 72.556 26.6132C73.6174 26.4128 74.6999 26.3009 75.7803 26.2207C76.4788 26.168 76.9346 26.5921 76.9937 27.1956C77.057 27.8498 76.7004 28.3035 75.9766 28.4385C75.141 28.5947 74.3011 28.7213 73.4655 28.8606C72.4505 29.0294 71.8744 29.6371 71.6592 30.6331C71.4693 31.5173 71.2709 32.4014 71.0388 33.275C70.3614 35.8283 68.9033 36.2715 66.8164 36.1744C64.5395 36.0668 62.2626 35.9064 59.9857 35.8283C59.4033 35.8072 58.8019 35.9697 58.228 36.1195C57.5316 36.301 57.0885 36.799 57.04 37.5165C56.9872 38.2867 57.0041 39.0695 57.0653 39.8398C57.1138 40.4686 57.5021 40.9307 58.1098 41.1037C58.6964 41.2726 59.3126 41.4519 59.9119 41.4393C61.6844 41.4055 63.4528 41.2705 65.2253 41.1924C66.1453 41.1502 67.0696 41.0953 67.9896 41.127C69.4203 41.1797 70.4522 42.0575 70.9227 43.6148C71.1844 44.48 71.3954 45.3642 71.5495 46.2547C71.7795 47.5925 72.5075 48.3543 73.8706 48.5041C74.5712 48.5822 75.2697 48.6856 75.9618 48.808C76.6793 48.9346 77.0507 49.4009 76.9958 50.0382C76.9431 50.6734 76.4809 51.1165 75.7592 51.0469C74.5396 50.9287 73.3157 50.781 72.1192 50.5278C70.3509 50.1543 69.6123 48.8565 69.3253 47.1852C69.1903 46.4024 68.9835 45.6301 68.7535 44.8683C68.4876 43.9862 67.8567 43.503 66.9282 43.5368C65.1029 43.6043 63.2776 43.7098 61.4544 43.8111C60.1313 43.8828 58.8146 43.9419 57.519 43.5705C55.8561 43.0957 54.8243 41.8486 54.6998 40.1141C54.6639 39.6097 54.6934 39.1012 54.6934 38.5926C54.6745 38.5926 54.6555 38.5926 54.6365 38.5905V38.5948Z" fill="black"/>
<path d="M49.9771 27.158C49.5487 26.6684 49.0655 26.2168 48.7047 25.6809C47.7066 24.1932 47.7593 22.3911 48.9495 21.0512C49.9898 19.88 51.1672 18.8291 52.3046 17.7445C53.2732 16.8203 54.2797 15.9361 55.2462 15.0097C55.9004 14.383 56.0122 13.6128 55.588 12.8215C55.1681 12.0428 54.7355 11.26 54.2143 10.5489C53.0981 9.02531 53.1571 7.51232 54.1763 6.0141C54.7841 5.1215 55.472 4.27743 56.1789 3.45658C56.6368 2.92482 57.2572 2.90372 57.7256 3.28988C58.2321 3.70558 58.3017 4.28165 57.8839 4.88938C57.4028 5.58996 56.9006 6.27365 56.4068 6.96368C55.8096 7.80141 55.8307 8.63915 56.3815 9.49377C56.871 10.2534 57.3585 11.0173 57.8122 11.8002C59.1395 14.0855 58.422 15.4297 56.8774 16.835C55.1913 18.3691 53.4694 19.8652 51.8024 21.4204C51.3762 21.8193 51.066 22.3573 50.7663 22.8701C50.4034 23.4905 50.4414 24.1552 50.914 24.6975C51.4226 25.2799 51.986 25.8201 52.5747 26.3224C53.0537 26.7317 53.6551 26.7845 54.208 26.4785C54.7419 26.1831 55.3053 25.875 55.721 25.4424C56.9491 24.1658 58.1076 22.8195 59.3019 21.5112C59.9244 20.8317 60.5364 20.1375 61.2116 19.5107C62.2604 18.5358 63.6088 18.4282 65.0458 19.1963C65.8414 19.6226 66.6179 20.0995 67.3565 20.6186C68.4664 21.4014 69.5173 21.4247 70.5892 20.5679C71.14 20.129 71.7055 19.707 72.2837 19.3039C72.8809 18.8861 73.4717 18.9536 73.8853 19.4432C74.2968 19.9307 74.2841 20.57 73.7249 21.0322C72.7796 21.8108 71.8089 22.5705 70.7834 23.2394C69.2683 24.227 67.8291 23.8302 66.4449 22.8532C65.797 22.3953 65.1028 21.9944 64.4022 21.6188C63.5898 21.182 62.8027 21.2875 62.1697 21.967C60.9268 23.3048 59.7113 24.6701 58.4916 26.0311C57.6075 27.0166 56.717 27.9915 55.5395 28.6456C54.0265 29.4855 52.4144 29.3336 51.1018 28.1941C50.7199 27.8628 50.3802 27.4808 50.0214 27.1221C50.0067 27.1348 49.994 27.1474 49.9792 27.1601L49.9771 27.158Z" fill="black"/>
<path d="M38.595 22.3637C37.9451 22.3194 37.2846 22.3426 36.6515 22.2181C34.8938 21.8741 33.6572 20.5616 33.5517 18.7701C33.4589 17.2064 33.5496 15.6301 33.5855 14.0602C33.6171 12.7223 33.7036 11.3845 33.7311 10.0466C33.7501 9.14137 33.2858 8.51676 32.4249 8.25932C31.5766 8.00399 30.7177 7.75921 29.8462 7.62416C27.9809 7.33717 26.9511 6.22511 26.6135 4.44413C26.413 3.38272 26.3012 2.3002 26.221 1.2198C26.1682 0.521332 26.5924 0.0655362 27.1959 0.00645149C27.85 -0.0568535 28.3037 0.299765 28.4388 1.02355C28.5949 1.85918 28.7215 2.69903 28.8608 3.53465C29.0296 4.54964 29.6373 5.12572 30.6333 5.34095C31.5175 5.53087 32.4017 5.72923 33.2753 5.96134C35.8286 6.63871 36.2717 8.09683 36.1746 10.1838C36.067 12.4607 35.9066 14.7375 35.8286 17.0144C35.8075 17.5968 35.97 18.1982 36.1198 18.7722C36.3012 19.4685 36.7992 19.9117 37.5167 19.9602C38.2869 20.0129 39.0698 19.9961 39.84 19.9349C40.4688 19.8863 40.931 19.4981 41.104 18.8903C41.2728 18.3037 41.4522 17.6875 41.4395 17.0883C41.4057 15.3157 41.2707 13.5474 41.1926 11.7749C41.1504 10.8548 41.0955 9.93057 41.1272 9.01054C41.18 7.57984 42.0578 6.54797 43.6151 6.0774C44.4803 5.81574 45.3644 5.60473 46.2549 5.45068C47.5928 5.22068 48.3545 4.49267 48.5043 3.1295C48.5824 2.42892 48.6858 1.73046 48.8082 1.03832C48.9348 0.320866 49.4012 -0.050523 50.0384 0.00434132C50.6736 0.0570955 51.1167 0.519222 51.0471 1.2409C50.9289 2.46058 50.7812 3.68447 50.528 4.88094C50.1545 6.64926 48.8567 7.38782 47.1855 7.6748C46.4026 7.80985 45.6303 8.01665 44.8685 8.24666C43.9865 8.51254 43.5033 9.14348 43.537 10.0719C43.6045 11.8972 43.71 13.7225 43.8113 15.5457C43.8831 16.8688 43.9422 18.1855 43.5708 19.4812C43.096 21.144 41.8489 22.1759 40.1143 22.3004C39.61 22.3362 39.1014 22.3067 38.5929 22.3067C38.5929 22.3257 38.5929 22.3447 38.5908 22.3637H38.595Z" fill="black"/>
<path d="M27.1577 27.023C26.6682 27.4514 26.2166 27.9346 25.6806 28.2955C24.1929 29.2936 22.3909 29.2408 21.0509 28.0507C19.8798 27.0104 18.8289 25.8329 17.7443 24.6955C16.82 23.727 15.9359 22.7204 15.0095 21.754C14.3828 21.0998 13.6126 20.988 12.8213 21.4121C12.0426 21.832 11.2597 22.2646 10.5486 22.7858C9.02507 23.9021 7.51208 23.843 6.01386 22.8238C5.12126 22.2161 4.27719 21.5282 3.45634 20.8213C2.92457 20.3634 2.90347 19.743 3.28963 19.2745C3.70534 18.7681 4.28141 18.6984 4.88914 19.1162C5.58971 19.5974 6.27341 20.0996 6.96343 20.5934C7.80117 21.1905 8.63891 21.1694 9.49352 20.6187C10.2532 20.1291 11.0171 19.6417 11.7999 19.188C14.0852 17.8607 15.4294 18.5782 16.8348 20.1228C18.3689 21.8088 19.865 23.5307 21.4202 25.1977C21.819 25.624 22.3571 25.9342 22.8699 26.2338C23.4903 26.5968 24.155 26.5588 24.6973 26.0861C25.2797 25.5776 25.8199 25.0142 26.3221 24.4254C26.7315 23.9464 26.7842 23.345 26.4783 22.7922C26.1828 22.2583 25.8748 21.6949 25.4422 21.2792C24.1655 20.051 22.8192 18.8926 21.5109 17.6982C20.8315 17.0757 20.1372 16.4638 19.5105 15.7885C18.5356 14.7398 18.428 13.3914 19.1961 11.9543C19.6223 11.1588 20.0992 10.3823 20.6183 9.6437C21.4012 8.53375 21.4244 7.48289 20.5677 6.41093C20.1288 5.86017 19.7067 5.29465 19.3037 4.71646C18.8859 4.11928 18.9534 3.52844 19.443 3.11485C19.9304 2.70336 20.5698 2.71602 21.0319 3.27522C21.8106 4.22057 22.5702 5.19125 23.2392 6.21679C24.2267 7.73189 23.83 9.17103 22.853 10.5553C22.3951 11.2031 21.9942 11.8974 21.6185 12.5979C21.1817 13.4104 21.2872 14.1974 21.9667 14.8305C23.3046 16.0734 24.6698 17.2888 26.0309 18.5085C27.0164 19.3927 27.9912 20.2832 28.6454 21.4606C29.4852 22.9736 29.3333 24.5858 28.1938 25.8983C27.8625 26.2803 27.4806 26.62 27.1219 26.9787C27.1345 26.9935 27.1472 27.0062 27.1598 27.0209L27.1577 27.023Z" fill="black"/>
</g>
<defs>
<clipPath id="clip0_273_14">
<rect width="77" height="77" fill="white"/>
</clipPath>
</defs>
</svg>
