<svg width="16" height="21" viewBox="0 0 16 21" fill="none" xmlns="http://www.w3.org/2000/svg">
<path d="M1 8.18848C1 13.0403 4.98301 17.0526 6.74599 18.5908C6.9983 18.811 7.12597 18.9224 7.31421 18.9789C7.46079 19.0228 7.67651 19.0228 7.82309 18.9789C8.01168 18.9223 8.13846 18.812 8.39172 18.591C10.1547 17.0527 14.1375 13.0407 14.1375 8.18892C14.1375 6.35281 13.4455 4.59168 12.2136 3.29335C10.9817 1.99502 9.31102 1.26562 7.56886 1.26562C5.82671 1.26562 4.15584 1.99513 2.92395 3.29346C1.69207 4.59179 1 6.35236 1 8.18848Z" stroke="black" stroke-width="2" stroke-linecap="round" stroke-linejoin="round"/>
<path d="M5.69199 7.26562C5.69199 8.37019 6.53226 9.26562 7.56879 9.26562C8.60531 9.26562 9.44559 8.37019 9.44559 7.26562C9.44559 6.16106 8.60531 5.26562 7.56879 5.26562C6.53226 5.26562 5.69199 6.16106 5.69199 7.26562Z" stroke="black" stroke-width="2" stroke-linecap="round" stroke-linejoin="round"/>
</svg>
