<svg width="18" height="14" viewBox="0 0 18 14" fill="none" xmlns="http://www.w3.org/2000/svg">
<g clip-path="url(#clip0_289_252)">
<path d="M17.8065 5.3129C17.7479 5.28028 17.6816 5.26404 17.6146 5.26589C17.5475 5.26774 17.4822 5.2876 17.4255 5.3234L10.788 9.9404C10.2512 10.2737 9.63187 10.4503 9 10.4503C8.36813 10.4503 7.74883 10.2737 7.212 9.9404L0.574501 5.3234C0.517723 5.28772 0.452417 5.26793 0.385389 5.26607C0.31836 5.26421 0.252059 5.28036 0.193393 5.31283C0.134726 5.34531 0.08584 5.39292 0.0518263 5.45071C0.0178126 5.50849 -8.39339e-05 5.57434 2.95952e-07 5.6414V11.9999C2.95952e-07 12.5966 0.237053 13.1689 0.65901 13.5909C1.08097 14.0128 1.65326 14.2499 2.25 14.2499H15.75C16.3467 14.2499 16.919 14.0128 17.341 13.5909C17.7629 13.1689 18 12.5966 18 11.9999V5.6414C18.0002 5.57431 17.9824 5.5084 17.9483 5.4506C17.9143 5.39279 17.8653 5.34523 17.8065 5.3129V5.3129Z" fill="black"/>
<path d="M18 2.25C18 1.65326 17.7629 1.08097 17.341 0.659009C16.919 0.237053 16.3467 0 15.75 0H2.25C1.65326 0 1.08097 0.237053 0.65901 0.659009C0.237053 1.08097 1.25248e-07 1.65326 1.25248e-07 2.25C-2.82955e-05 2.26892 0.00478056 2.28753 0.0139691 2.30407C0.0231576 2.32061 0.0364205 2.33453 0.0524999 2.3445L8.4 8.0325C8.57875 8.14361 8.78503 8.2025 8.9955 8.2025C9.20597 8.2025 9.41225 8.14361 9.591 8.0325L17.943 2.3445C17.9598 2.33497 17.9739 2.32127 17.9839 2.30472C17.9939 2.28817 17.9994 2.26932 18 2.25V2.25Z" fill="black"/>
</g>
<defs>
<clipPath id="clip0_289_252">
<rect width="18" height="14" fill="white"/>
</clipPath>
</defs>
</svg>
